<?xml version="1.0" encoding="UTF-8" standalone="no"?>
<!-- Created with Inkscape (http://www.inkscape.org/) -->

<svg
   width="16.763407mm"
   height="3.5320709mm"
   viewBox="0 0 16.763407 3.5320709"
   version="1.1"
   id="svg5"
   inkscape:version="1.2.2 (732a01da63, 2022-12-09, custom)"
   sodipodi:docname="logo.svg"
   xmlns:inkscape="http://www.inkscape.org/namespaces/inkscape"
   xmlns:sodipodi="http://sodipodi.sourceforge.net/DTD/sodipodi-0.dtd"
   xmlns="http://www.w3.org/2000/svg"
   xmlns:svg="http://www.w3.org/2000/svg">
  <sodipodi:namedview
     id="namedview7"
     pagecolor="#ffffff"
     bordercolor="#000000"
     borderopacity="0.25"
     inkscape:showpageshadow="2"
     inkscape:pageopacity="0.0"
     inkscape:pagecheckerboard="0"
     inkscape:deskcolor="#d1d1d1"
     inkscape:document-units="mm"
     showgrid="false"
     inkscape:zoom="7.9421345"
     inkscape:cx="24.552594"
     inkscape:cy="5.0993848"
     inkscape:window-width="1920"
     inkscape:window-height="946"
     inkscape:window-x="0"
     inkscape:window-y="0"
     inkscape:window-maximized="1"
     inkscape:current-layer="layer1" />
  <defs
     id="defs2">
    <inkscape:path-effect
       effect="spiro"
       id="path-effect4424"
       is_visible="true"
       lpeversion="1" />
    <inkscape:path-effect
       effect="spiro"
       id="path-effect4347"
       is_visible="true"
       lpeversion="1" />
  </defs>
  <g
     inkscape:label="Layer 1"
     inkscape:groupmode="layer"
     id="layer1"
     transform="translate(-28.367034,-144.9366)">
    <path
       style="fill:none;stroke:#000000;stroke-width:1.265;stroke-dasharray:none;stroke-opacity:1"
       d="m 46.769567,63.236775 c 0,0 -7.19736,1.047044 -11.596875,11.456853 -4.399513,10.409806 -0.188172,18.157367 -0.188172,18.157367 0,0 3.675719,8.308165 11.531029,8.135355 7.855309,-0.17282 10.507405,-6.861881 10.507405,-6.861881 0,0 2.155252,-4.939304 -0.677988,-8.488012 C 54.032958,82.740604 54.8245,78.534873 54.8245,78.534873 l 0.779753,-4.629587 c 0.589641,-2.901212 0.370615,-11.399854 -8.834686,-10.668511 z"
       id="path4224"
       sodipodi:nodetypes="cscscsccc" />
    <path
       style="fill:none;stroke:#000000;stroke-width:1.265;stroke-dasharray:none;stroke-opacity:1"
       d="m 46.330147,44.312855 c -0.106982,-4.406584 2.069178,-6.712669 10.575334,-5.539735 11.191933,1.543282 16.555959,2.283823 16.555959,2.283823 0,0 6.468448,1.904595 6.368156,7.742614 -0.132653,7.721812 -6.45873,5.9166 -6.45873,5.9166 0,0 -16.363976,-0.722779 -23.241376,-2.852503 -4.128254,-1.278396 -3.735837,-4.934972 -3.799343,-7.550799 z"
       id="path4226"
       sodipodi:nodetypes="sscscss" />
    <circle
       style="fill:none;stroke:#000000;stroke-width:1.265;stroke-dasharray:none;stroke-opacity:1"
       id="path4280"
       cx="83.185814"
       cy="75.578911"
       r="10.963881" />
    <circle
       style="fill:none;stroke:#000000;stroke-width:1.265;stroke-dasharray:none;stroke-opacity:1"
       id="path4282"
       cx="79.524529"
       cy="71.905151"
       r="0.30620143" />
    <circle
       style="fill:none;stroke:#000000;stroke-width:2.1348;stroke-dasharray:none;stroke-opacity:1"
       id="path4282-3"
       cx="81.601669"
       cy="73.483688"
       r="0.51674229" />
    <circle
       style="fill:none;stroke:#000000;stroke-width:1.265;stroke-dasharray:none;stroke-opacity:1"
       id="path4284"
       cx="87.570786"
       cy="74.309441"
       r="1.4655876" />
    <path
       style="fill:none;stroke:#000000;stroke-width:1.265;stroke-linecap:round;stroke-dasharray:none;stroke-opacity:1"
       d="m 76.330145,76.050965 c -0.09749,-0.01439 -0.201081,0.02201 -0.268137,0.09423 -0.06303,0.06788 -0.0924,0.163849 -0.08554,0.256229 0.0069,0.09238 0.04827,0.180604 0.109372,0.250231 0.0611,0.06963 0.141111,0.121255 0.227103,0.1557 0.08599,0.03444 0.177969,0.05222 0.270245,0.06036 0.184553,0.01628 0.370364,-0.0053 0.55554,5e-4 0.09259,0.0029 0.185399,0.0128 0.274725,0.03733 0.08933,0.02454 0.175298,0.06413 0.247261,0.122461 0.08699,0.07051 0.151324,0.166986 0.190369,0.27193 0.03905,0.104944 0.05345,0.218148 0.04984,0.330062 -0.0072,0.223828 -0.08453,0.438915 -0.166307,0.647396 -0.08177,0.208481 -0.169684,0.417684 -0.199849,0.639587 -0.01508,0.110952 -0.01534,0.22455 0.0071,0.33425 0.02245,0.109699 0.06815,0.215492 0.138893,0.302287 0.06625,0.08129 0.153375,0.144565 0.248929,0.187768 0.09556,0.0432 0.199407,0.0667 0.303969,0.0747 0.209124,0.016 0.418117,-0.0291 0.619802,-0.08665 0.201686,-0.05755 0.400394,-0.127985 0.606888,-0.164713 0.206495,-0.03673 0.42507,-0.03797 0.619675,0.04024 0.127211,0.05113 0.240154,0.134915 0.332204,0.236521 0.09205,0.101606 0.163639,0.220747 0.217851,0.346675 0.108424,0.251857 0.147327,0.527421 0.179133,0.799773 0.03181,0.272353 0.0581,0.547923 0.143787,0.808393 0.08569,0.260471 0.238092,0.509005 0.470478,0.654554 0.244283,0.153001 0.55755,0.175775 0.833674,0.09308 0.276124,-0.0827 0.516323,-0.263236 0.702677,-0.483136 0.372707,-0.439801 0.532241,-1.014919 0.741082,-1.552246 0.08645,-0.222426 0.184669,-0.444091 0.335625,-0.628913 0.150956,-0.184821 0.361662,-0.33116 0.598537,-0.360089 0.128924,-0.01574 0.261149,0.0038 0.382668,0.04966 0.121518,0.04586 0.232515,0.117525 0.329232,0.204215 0.193433,0.173381 0.327677,0.402958 0.437681,0.63828 0.110004,0.235322 0.199089,0.480453 0.319994,0.710365 0.120905,0.229912 0.277894,0.44789 0.49371,0.592462 0.259403,0.17377 0.592809,0.227287 0.897218,0.157854 0.304409,-0.06943 0.577485,-0.257643 0.763159,-0.508662 0.185675,-0.25102 0.285123,-0.561915 0.29511,-0.873982 0.01,-0.312068 -0.06758,-0.624562 -0.208443,-0.903206 -0.119041,-0.235471 -0.284912,-0.454642 -0.333103,-0.714055 -0.0429,-0.230937 0.01727,-0.479077 0.161179,-0.664715 0.143912,-0.185639 0.369225,-0.305755 0.603567,-0.321766 0.234341,-0.01601 0.473897,0.07234 0.641721,0.236684 0.167823,0.164341 0.261182,0.401991 0.250089,0.636617"
       id="path4345"
       inkscape:path-effect="#path-effect4347"
       inkscape:original-d="m 76.330145,76.050965 c -0.08911,0.03167 -0.178493,0.06308 -0.268137,0.09423 -0.08965,0.03114 1.066073,0.588809 1.598711,0.882816 0.532638,0.294008 0.01363,1.683938 0.02005,2.525512 0.0064,0.84157 1.599774,0.03449 2.399263,0.05135 0.799489,0.01685 0.8959,1.897541 1.343453,2.845916 0.447556,0.948375 1.518555,-1.294606 2.277433,-1.942306 0.758881,-0.647697 0.623041,-0.659069 0.934162,-0.989002 0.311123,-0.329933 1.309121,1.463588 1.963285,2.194983 0.654164,0.731399 1.16496,-1.418399 1.747044,-2.127996 0.582083,-0.709596 -0.221806,-0.475771 -0.333103,-0.714055 -0.111299,-0.238283 1.104636,-0.07519 1.656556,-0.11318" />
    <path
       style="fill:none;stroke:#000000;stroke-width:1.265;stroke-linecap:round;stroke-dasharray:none;stroke-opacity:1"
       d="m 42.406988,95.596947 c 0.339282,1.189376 1.220938,2.212353 2.347217,2.723454 1.126278,0.5111 2.476722,0.501041 3.595262,-0.02678 1.11854,-0.527822 1.984859,-1.56382 2.306385,-2.758118 0.321527,-1.194298 0.09242,-2.525204 -0.609944,-3.543246 -0.413503,-0.599352 -0.978841,-1.08775 -1.613881,-1.444026 -0.635041,-0.356275 -1.338676,-0.582714 -2.056914,-0.702477 -1.436474,-0.239527 -2.910425,-0.05624 -4.338222,0.230515 -0.868209,0.174368 -1.735981,0.38773 -2.621329,0.406449 -0.885348,0.01872 -1.808816,-0.17744 -2.494289,-0.738081 -0.539887,-0.441567 -0.897979,-1.089817 -1.021561,-1.776248 -0.123582,-0.68643 -0.01846,-1.406566 0.261395,-2.045426 0.279853,-0.638859 0.729903,-1.197231 1.270899,-1.637439 0.540996,-0.440207 1.171284,-0.764488 1.832401,-0.986711 0.851855,-0.286336 1.762264,-0.409043 2.56864,-0.805786 0.403188,-0.198371 0.778122,-0.467513 1.05247,-0.823385 0.274347,-0.355872 0.442211,-0.803733 0.415143,-1.252263 -0.01682,-0.278779 -0.107879,-0.551099 -0.250154,-0.791429 -0.142275,-0.24033 -0.334875,-0.449171 -0.55437,-0.621862 -0.438992,-0.345383 -0.976722,-0.542997 -1.519148,-0.676328 -0.542425,-0.13333 -1.097882,-0.207641 -1.641264,-0.337018 -0.543383,-0.129377 -1.083179,-0.318765 -1.52961,-0.654476 -0.5645,-0.424498 -0.951058,-1.078318 -1.05131,-1.777466 -0.100252,-0.699148 0.08693,-1.435102 0.508711,-2.001631 0.421785,-0.56653 1.072998,-0.956841 1.771405,-1.06213 0.698407,-0.105289 1.435598,0.07561 2.006159,0.49193 0.661928,0.482983 1.076541,1.240867 1.717539,1.751301 0.320499,0.255216 0.706244,0.446993 1.115493,0.466246 0.204624,0.0096 0.412411,-0.02479 0.598838,-0.109692 0.186426,-0.08491 0.350693,-0.221256 0.459732,-0.394675 0.116233,-0.184861 0.166963,-0.406994 0.160953,-0.625278 -0.006,-0.218283 -0.06685,-0.432893 -0.159476,-0.630641 -0.18525,-0.395496 -0.49082,-0.719328 -0.780168,-1.046455 -0.289348,-0.327128 -0.573855,-0.676517 -0.701722,-1.094111 -0.06393,-0.208797 -0.08631,-0.432441 -0.04639,-0.647127 0.03992,-0.214686 0.144511,-0.419749 0.30757,-0.564991 0.169041,-0.150571 0.39424,-0.231006 0.620259,-0.243719 0.22602,-0.01271 0.452692,0.03934 0.660623,0.12884 0.415862,0.179011 0.751652,0.498555 1.096356,0.792095 0.344704,0.293539 0.726235,0.575353 1.172533,0.651544 0.223148,0.0381 0.458553,0.02113 0.665962,-0.06958 0.207408,-0.09071 0.38424,-0.258663 0.465749,-0.469857 0.06408,-0.166025 0.06763,-0.352371 0.02416,-0.52494 -0.04348,-0.172568 -0.13233,-0.331772 -0.245015,-0.469512 -0.22537,-0.27548 -0.538326,-0.462371 -0.844312,-0.644177 -0.305986,-0.181805 -0.618445,-0.369941 -0.841878,-0.646994 -0.111717,-0.138526 -0.199202,-0.298563 -0.240862,-0.471579 -0.04166,-0.173017 -0.03581,-0.359398 0.03059,-0.524509 0.04859,-0.120833 0.128494,-0.228116 0.226162,-0.314271 0.09767,-0.08615 0.212799,-0.151518 0.334665,-0.197458 0.243732,-0.09188 0.510208,-0.105892 0.770297,-0.09172 0.951569,0.05185 1.877251,0.482802 2.529493,1.177606 0.652243,0.694804 1.023897,1.645844 1.015572,2.598789"
       id="path4422"
       inkscape:path-effect="#path-effect4424"
       inkscape:original-d="m 42.406988,95.596947 c 2.546569,-1.201298 5.092877,-2.402864 7.63892,-3.604691 2.546043,-1.20183 -5.33908,-1.277062 -8.009017,-1.915988 -2.669937,-0.638927 -3.410148,-0.220824 -5.115618,-0.331632 -1.70547,-0.110807 1.562354,-4.29695 2.343134,-6.445824 0.780777,-2.148872 2.691098,-1.920692 4.036253,-2.881434 1.345152,-0.960742 -3.662767,-2.05381 -5.494546,-3.081113 -1.831782,-1.027303 2.156907,-2.899267 3.234965,-4.349297 1.078058,-1.450031 2.594665,1.142386 3.891602,1.71318 1.296938,0.570796 -0.812556,-3.072136 -1.219231,-4.608603 -0.406675,-1.536464 3.121252,0.526481 4.681482,0.789326 1.560229,0.262845 -1.411285,-2.187543 -2.117323,-3.281711 -0.706038,-1.094169 0.887682,-0.402035 1.331124,-0.603449 0.443444,-0.201417 2.363642,2.517862 3.545065,3.776395" />
    <circle
       style="fill:none;stroke:#000000;stroke-width:1.265;stroke-linecap:round;stroke-dasharray:none;stroke-opacity:1"
       id="path4428"
       cx="48.266571"
       cy="84.198013"
       r="2.7671752" />
    <circle
       style="fill:none;stroke:#000000;stroke-width:1.265;stroke-linecap:round;stroke-dasharray:none;stroke-opacity:1"
       id="path4430"
       cx="53.221298"
       cy="88.104523"
       r="1.5550523" />
    <ellipse
       style="fill:none;stroke:#000000;stroke-width:1.265;stroke-linecap:round;stroke-dasharray:none;stroke-opacity:1"
       id="path4434"
       cx="49.9543"
       cy="77.521919"
       rx="1.0794485"
       ry="1.0720303" />
    <text
       xml:space="preserve"
       style="font-size:3.175px;fill:none;stroke:#000000;stroke-width:0;stroke-linecap:round;stroke-dasharray:none;stroke-opacity:1"
       x="52.52026"
       y="145.02118"
       id="text5821"><tspan
         sodipodi:role="line"
         id="tspan5819"
         style="stroke-width:0;stroke-dasharray:none"
         x="52.52026"
         y="145.02118" /></text>
    <text
       xml:space="preserve"
       style="font-style:normal;font-variant:normal;font-weight:normal;font-stretch:normal;font-size:3.175px;font-family:Ubuntu;-inkscape-font-specification:Ubuntu;fill:#d9d9d9;fill-opacity:1;stroke:#000000;stroke-width:0.0776194;stroke-linecap:round;stroke-dasharray:none;stroke-opacity:1"
       x="28.151844"
       y="147.85199"
       id="text5883"><tspan
         sodipodi:role="line"
         id="tspan5881"
         style="font-style:normal;font-variant:normal;font-weight:normal;font-stretch:normal;font-family:Ubuntu;-inkscape-font-specification:Ubuntu;fill:#d9d9d9;fill-opacity:1;stroke-width:0.0776194;stroke-dasharray:none;stroke:#000000;stroke-opacity:1"
         x="28.151844"
         y="147.85199">micr </tspan></text>
    <circle
       style="fill:#ededed;fill-opacity:1;stroke:#000000;stroke-width:0.0776194;stroke-linecap:round;stroke-dasharray:none;stroke-opacity:1"
       id="path5885"
       cx="36.50647"
       cy="146.70264"
       r="1.7272258" />
    <circle
       style="fill:#ffffff;fill-opacity:1;stroke:#000000;stroke-width:0.078;stroke-linecap:round;stroke-dasharray:0.039, 0.117;stroke-dashoffset:0;stroke-opacity:1"
       id="path5885-6"
       cx="36.50647"
       cy="146.70264"
       r="1.3929936" />
    <ellipse
       style="fill:#000000;fill-opacity:1;stroke:#000000;stroke-width:0.117923;stroke-linecap:round;stroke-dasharray:none;stroke-opacity:1"
       id="path5922-9"
       cx="36.44109"
       cy="147.25645"
       rx="0.088505648"
       ry="0.086253099" />
    <ellipse
       style="fill:#fd08a2;fill-opacity:1;stroke:none;stroke-width:0.0863906;stroke-linecap:round;stroke-dasharray:none;stroke-opacity:1"
       id="path5922-9-9"
       cx="36.653397"
       cy="145.93854"
       rx="0.064839385"
       ry="0.063189164" />
    <circle
       style="fill:#ffc02c;fill-opacity:1;stroke:#000000;stroke-width:0.0776194;stroke-linecap:round;stroke-dasharray:none;stroke-opacity:1"
       id="path6471"
       cx="35.954319"
       cy="146.78551"
       r="0.19240068" />
    <ellipse
       style="fill:#98ffe9;fill-opacity:1;stroke:#000000;stroke-width:0.0776194;stroke-linecap:round;stroke-dasharray:none;stroke-opacity:1"
       id="path6604"
       cx="36.911602"
       cy="146.60735"
       rx="0.35513121"
       ry="0.35353079" />
    <ellipse
       style="fill:#000000;fill-opacity:1;stroke:#000000;stroke-width:0.117923;stroke-linecap:round;stroke-dasharray:none;stroke-opacity:1"
       id="path5922-9-3"
       cx="36.175495"
       cy="146.17331"
       rx="0.088505648"
       ry="0.086253099" />
    <text
       xml:space="preserve"
       style="font-style:normal;font-variant:normal;font-weight:normal;font-stretch:normal;font-size:3.175px;font-family:Ubuntu;-inkscape-font-specification:Ubuntu;fill:#60cbb2;fill-opacity:1;stroke:#000000;stroke-width:0.07;stroke-linecap:round;stroke-linejoin:miter;stroke-dasharray:none;stroke-dashoffset:0;stroke-opacity:1"
       x="38.548599"
       y="147.85199"
       id="text8660"><tspan
         sodipodi:role="line"
         id="tspan8658"
         style="font-style:normal;font-variant:normal;font-weight:normal;font-stretch:normal;font-family:Ubuntu;-inkscape-font-specification:Ubuntu;fill:#60cbb2;fill-opacity:1;stroke:#000000;stroke-width:0.07;stroke-linejoin:miter;stroke-dasharray:none;stroke-dashoffset:0;stroke-opacity:1"
         x="38.548599"
         y="147.85199">base</tspan></text>
  </g>
</svg>
