<?xml version="1.0" encoding="UTF-8" standalone="no"?>
<!-- Created with Inkscape (http://www.inkscape.org/) -->

<svg
   width="2806.5107"
   height="557.3418"
   viewBox="0 0 2806.5108 557.34179"
   version="1.1"
   id="SVGRoot"
   sodipodi:docname="loho"
   inkscape:version="1.2.2 (732a01da63, 2022-12-09, custom)"
   inkscape:export-filename="../95c31195/logo.png"
   inkscape:export-xdpi="96"
   inkscape:export-ydpi="96"
   xmlns:inkscape="http://www.inkscape.org/namespaces/inkscape"
   xmlns:sodipodi="http://sodipodi.sourceforge.net/DTD/sodipodi-0.dtd"
   xmlns:xlink="http://www.w3.org/1999/xlink"
   xmlns="http://www.w3.org/2000/svg"
   xmlns:svg="http://www.w3.org/2000/svg">
  <sodipodi:namedview
     id="namedview16033"
     pagecolor="#ffffff"
     bordercolor="#000000"
     borderopacity="0.25"
     inkscape:showpageshadow="2"
     inkscape:pageopacity="0.0"
     inkscape:pagecheckerboard="0"
     inkscape:deskcolor="#d1d1d1"
     inkscape:document-units="px"
     showgrid="false"
     inkscape:zoom="0.24567199"
     inkscape:cx="1440.9457"
     inkscape:cy="441.64579"
     inkscape:window-width="1920"
     inkscape:window-height="1016"
     inkscape:window-x="0"
     inkscape:window-y="0"
     inkscape:window-maximized="1"
     inkscape:current-layer="layer1" />
  <defs
     id="defs16028">
    <linearGradient
       inkscape:collect="always"
       id="linearGradient7528">
      <stop
         style="stop-color:#b9d386;stop-opacity:1;"
         offset="0"
         id="stop7524" />
      <stop
         style="stop-color:#50c085;stop-opacity:1;"
         offset="0.71474427"
         id="stop7526" />
      <stop
         style="stop-color:#37d9bb;stop-opacity:1;"
         offset="1"
         id="stop7558" />
    </linearGradient>
    <inkscape:path-effect
       effect="offset"
       id="path-effect21380"
       is_visible="true"
       lpeversion="1.2"
       linejoin_type="round"
       unit="mm"
       offset="1.3"
       miter_limit="4.6"
       attempt_force_join="false"
       update_on_knot_move="true" />
    <inkscape:path-effect
       effect="offset"
       id="path-effect244"
       is_visible="true"
       lpeversion="1.2"
       linejoin_type="miter"
       unit="mm"
       offset="3.4"
       miter_limit="4"
       attempt_force_join="false"
       update_on_knot_move="true" />
    <radialGradient
       inkscape:collect="always"
       xlink:href="#linearGradient7528"
       id="radialGradient7534"
       cx="1955.0656"
       cy="559.09039"
       fx="1955.0656"
       fy="559.09039"
       r="279.53799"
       gradientTransform="matrix(1,0,0,0.99689813,0,1.7342251)"
       gradientUnits="userSpaceOnUse" />
  </defs>
  <g
     inkscape:label="Layer 1"
     inkscape:groupmode="layer"
     id="layer1"
     transform="translate(-582.11066,-280.41951)">
    <path
       id="path3344"
       style="fill:none;fill-opacity:0;stroke:url(#radialGradient7534);stroke-width:15;stroke-linecap:round;stroke-linejoin:round;stroke-dasharray:none;stroke-dashoffset:0;stroke-opacity:1"
       d="m 1954.5684,287.91951 a 272.53467,271.28503 0 0 0 -12.6465,0.9004 c 0.5665,2.20195 0.8753,4.68129 0.8946,7.3789 a 4.9133858,4.9133858 0 0 1 -1.1739,3.2207 c -3.1516,3.69979 -4.3779,7.42873 -4.5078,10.66407 -0.1065,2.64956 0.5039,5.10957 1.5352,7.1582 2.6137,5.19208 11.3425,11.67361 12.2363,-9.42969 v 0.47461 c -0.4204,-7.68263 2.9508,-15.25758 7.8457,-20.26172 a 272.53467,271.28503 0 0 0 -4.1836,-0.10547 z m 26.0332,1.2754 c 1.4732,3.36173 2.1333,7.74585 1.7773,12.98437 a 4.9133858,4.9133858 0 0 1 -0.2714,1.30664 c -4.786,13.5121 -19.4962,28.33359 -27.8536,42.19727 -7.373,12.23098 -9.5684,22.47361 3.9297,31.69922 20.4305,-7.42791 24.4956,-39.4773 28.127,-61.84766 -0.2901,-9.72062 6.3321,-19.50398 12.8652,-23.89063 a 272.53467,271.28503 0 0 0 -18.5742,-2.44921 z m -61.8398,1.27343 a 272.53467,271.28503 0 0 0 -87.0899,27.22852 c 3.5251,0.39242 6.9951,3.32055 10.461,7.30469 a 4.9133858,4.9133858 0 0 1 1.1308,4.08398 c -4.6331,26.10606 10.5335,68.57024 41.8242,62.81055 -10.0503,-24.39286 -42.708,-53.15625 -18.3964,-84.93164 a 4.9133858,4.9133858 0 0 1 2.8417,-1.81055 c 29.3235,-6.47994 16.035,22.79212 14.043,33.2207 -0.6939,3.63299 -0.9231,6.77775 -0.4238,9.41992 0.5398,2.85651 2.0365,5.31693 5.5625,7.03711 a 4.9133858,4.9133858 0 0 1 0.1875,0.0977 c 24.6995,13.39712 19.6949,39.14084 23.2148,57.49219 11.6746,-24.4607 5.8465,-58.7387 4.7461,-88.03321 -7.6431,-8.32015 -4.7457,-23.70327 1.8985,-33.91992 z m 95.332,4.08203 c 1.2461,3.59093 1.2477,8.78437 -0.5,15.32422 a 4.9133858,4.9133858 0 0 1 -0.084,0.28516 c -10.3397,31.05561 -13.9527,71.63424 -44.5215,93.35937 -10.9623,24.31457 24.2745,49.05881 6.5274,79.74411 a 4.9133858,4.9133858 0 0 1 -0.012,0.0196 c -11.1917,19.1503 -4.6631,58.4003 23.6055,39.7832 5.2938,-3.6212 5.4234,-6.7025 4.0176,-11.0918 -2.6481,-8.2681 -11.739,-19.2917 -12.0508,-31.0957 -0.1425,-5.3967 1.4465,-10.508 5.4981,-15.6387 13.2755,-33.63118 6.4459,-71.84062 25.8379,-106.24805 l -0.078,0.14453 c 4.1705,-8.01803 1.451,-21.78649 1.416,-34.93359 -0.026,-9.822 1.9248,-19.50473 9.7793,-24.58985 a 272.53467,271.28503 0 0 0 -19.4355,-5.0625 z m 38.6426,11.6543 c -0.3692,21.82672 -18.722,44.05575 -4.6641,57.68555 8.5651,-1.36493 15.5571,-11.90314 23.3848,-22.94336 5.0059,-7.06041 10.8375,-14.58966 17.7304,-17.5586 a 272.53467,271.28503 0 0 0 -36.4511,-17.18359 z m -227.8789,15.19727 a 272.53467,271.28503 0 0 0 -38.5332,25.16015 c 11.7266,-1.48627 24.588,-0.21605 33.5273,2.30664 2.4518,-1.06155 2.819,-8.16617 3.1426,-16.76172 0.123,-3.26951 0.2937,-7.60008 1.8633,-10.70507 z m 280.8476,12.15429 c -12.9742,32.26763 -46.4984,47.58986 -71.6894,65.18946 -10.7028,27.01634 -2.7139,61.32354 -17.7715,88.38284 6.0043,9.2028 8.6556,5.0093 11.2637,-1.0957 2.6551,-6.2153 3.9647,-14.5411 3.498,-20.2813 a 4.9133858,4.9133858 0 0 1 0.3086,-2.1562 c 13.7904,-36.01116 55.7413,-47.42058 69.3242,-80.05472 1.8382,-8.41616 11.2008,-20.12745 19.5195,-26.8711 2.9159,-2.36373 6.0939,-4.40452 9.1602,-5.55468 a 272.53467,271.28503 0 0 0 -23.6133,-17.5586 z m 37.5879,29.97657 c 0,0.0595 0,0.1101 0,0.16992 a 4.9133858,4.9133858 0 0 1 -0.8575,2.40625 c -21.1642,30.58657 -43.0507,62.03304 -73.8964,84.79106 -14.249,15.2828 -29.6565,49.0893 -16.7071,58.33 2.9411,2.0988 8.0163,3.4869 16.459,2.6602 a 4.9133858,4.9133858 0 0 1 2.5527,0.4375 c 20.4329,9.5169 31.4273,-2.1454 40.459,-19.0899 -0.4861,-2.8926 0.9745,-5.0302 3.0117,-6.0312 3.7518,-7.828 7.1065,-15.9168 10.3614,-22.9141 a 4.9133858,4.9133858 0 0 1 0.2988,-0.5468 c 12.554,-19.91922 21.373,-56.20926 50.0762,-63.86528 A 272.53467,271.28503 0 0 0 2143.293,363.5328 Z m -348.2012,6.43359 c -3.1567,-0.18314 -7.1067,1.26814 -11.2187,5.49219 10.9876,17.13303 13.5676,39.15683 17.1699,53.70312 26.0727,24.86323 46.2711,57.63113 79.6856,67.91603 -17.0967,-26.7112 -48.7158,-47.8121 -51.7696,-84.26368 -3.9268,-15.48794 -19.446,-42.01101 -33.8672,-42.84766 z m -37.0546,2.19141 a 272.53467,271.28503 0 0 0 -31.2422,38.39062 c 10.7361,-6.19154 24.8496,-5.02253 34.9394,10.75586 8.63,8.81941 9.8684,5.8972 10.7695,2.79492 2.9211,-10.0551 -1.7936,-31.45344 -8.9472,-36.83008 a 4.9133858,4.9133858 0 0 1 -1.4258,-1.69336 c -2.4532,-4.80583 -3.7406,-9.25872 -4.0937,-13.41796 z m 89.1464,28.5039 c 0.6908,1.80592 1.0295,3.10987 1.9239,5.20703 4.0528,9.50357 9.2729,20.02675 11.3261,24.43555 16.5732,26.92305 35.8335,52.45215 56.5899,76.30275 10.243,9.9638 21.7832,18.4569 33.6152,26.789 1.245,-32.5395 -24.35,-56.1227 -47.5449,-78.0273 a 4.9133858,4.9133858 0 0 1 -1.3691,-2.2852 c -7.5813,-27.95117 -31.5842,-37.34976 -54.5411,-52.42183 z m 92.5938,10.10156 c -5.4897,15.03766 -16.8838,27.96554 -10.8301,39.98047 6.2573,9.4281 15.3077,16.2882 24.3027,23.7598 4.7476,-21.4656 -4.3859,-42.47149 -13.4726,-63.74027 z m 246.8125,6.18555 c -0.1396,0.46694 -0.1747,0.94747 -0.3516,1.4082 -3.7091,9.65975 -15.7433,18.50442 -23.0801,25.44141 -5.5569,5.25421 -6.9425,6.89091 -3.4882,8.73241 7.504,-2.5591 25.8268,-11.62956 39.3906,-13.16405 a 272.53467,271.28503 0 0 0 -12.4707,-22.41797 z m -444.0117,18.25781 c -2.7656,2.01004 -3.8903,3.93228 -4.1719,5.35938 -2.1689,10.99153 24.9115,28.57513 37.7422,34.57813 a 4.9133858,4.9133858 0 0 1 0.039,0.0195 c 13.0655,6.2555 28.8905,12.9286 38.4043,26.4043 5.2449,0.5557 11.8191,0.0355 17.4043,-1.6621 1.7706,-0.5381 3.1726,-1.1235 4.2696,-1.7578 1.3715,-0.7932 4.2508,-1.6256 -6.2285,-7.2617 a 4.9133858,4.9133858 0 0 1 -1.8555,-1.75 c -18.4793,-29.9827 -57.6629,-33.2324 -85.6035,-53.92971 z m -31.1953,2.69922 a 272.53467,271.28503 0 0 0 -15.8594,38.33199 c 18.5399,-3.0194 41.6232,12.8285 57.789,12.0411 -1.0395,-1.3678 -4.0527,-4.0633 -10.6425,-8.6192 -8.9224,-6.1684 -20.8254,-13.6887 -24.1641,-23.2226 -4.856,-5.9936 -6.9493,-12.3872 -7.123,-18.53129 z m 496.7031,21.96489 c -27.118,15.9003 -62.1962,11.0081 -77.4199,39.0644 a 4.9133858,4.9133858 0 0 1 -0.3672,0.5762 c -4.3893,5.9373 -4.4043,8.2949 -4.4043,8.2949 0.212,0.2238 6.3081,0.1212 12.4219,-5.6621 a 4.9133858,4.9133858 0 0 1 3.1386,-1.3379 c 24.8674,-1.2113 49.7954,-15.0304 74.3125,-18.7715 a 272.53467,271.28503 0 0 0 -7.6816,-22.164 z m -517.7735,35.539 a 272.53467,271.28503 0 0 0 -7.2851,49.9942 c 7.7872,-19.3553 31.5778,-11.0717 45.6699,-7.6914 3.9256,0.9416 7.1426,1.5426 9.6016,1.5136 1.1358,-0.0131 1.7204,-0.1262 2.1758,-0.2929 -9.012,-16.5325 -46.7913,-4.0463 -51.9375,-30.4844 a 4.9133858,4.9133858 0 0 1 4.7265,-5.8516 c 37.6559,-0.7264 61.9272,33.2648 91.1875,41.2071 15.4131,-7.6814 31.3922,-14.8217 47.2988,-20.7032 -19.7723,-1.9568 -39.9623,-4.0341 -59.5371,-8.9551 -25.8299,-6.285 -56.9218,-5.3732 -81.9004,-18.7363 z m 530.6602,6.8125 c -18.3009,15.5732 -50.3453,11.3723 -68.1543,21.4258 l 0.1895,-0.1133 c -32.6786,20.4469 -67.8973,17.0795 -102.0157,7.8965 -25.2034,6.7298 -61.1629,8.0286 -71.959,29.4981 12.3085,29.9077 50.8558,17.2247 79.295,31.6093 a 4.9133858,4.9133858 0 0 1 1.9004,1.7031 c 12.151,18.6555 27.9816,7.3615 48.5605,3.1915 4.9902,-1.0112 10.2696,-1.4861 15.4219,-0.3868 a 4.9133858,4.9133858 0 0 1 1.457,0.5645 c 26.8327,15.7013 49.829,-15.8591 79.75,-5.7637 6.7545,-0.3187 13.536,2.8155 18.6777,7.0332 a 272.53467,271.28503 0 0 0 3.0079,-39.6758 272.53467,271.28503 0 0 0 -6.1309,-56.9824 z m -316.3691,30.8985 c -7.3795,0.3667 -14.7249,4.5764 -19.5235,14.3535 3.2495,10.3266 -3.4084,20.6745 -5.2285,24.8418 1.313,0.1601 3.3395,0.1554 6.8848,-0.1914 9.6173,-5.6534 27.0667,-4.7527 39.5254,-6.2461 11.3069,-1.3554 16.4601,-3.0487 10.2421,-14.2637 -8.7022,-12.2306 -21.1306,-19.0295 -31.9003,-18.4941 z m -45.1582,6.3164 c -26.843,13.4194 -57.8854,16.8006 -81.9825,32.8105 a 4.9133858,4.9133858 0 0 1 -1.709,0.7168 c -0.082,0.013 -0.1758,0.007 -0.2578,0.0234 5.0371,1.4183 10.0136,3.0526 14.8282,5.1661 l 4.6621,1.2128 0.045,0.0118 0.049,0.0117 3.4805,0.832 c 28.1833,-11.3283 68.9473,-7.1033 60.8848,-40.7851 z m -143.6622,18.0117 c -4.5807,-0.2027 -7.724,1.4969 -9.4179,6.1387 12.6255,1.5109 26.4751,2.3007 40.7402,3.9843 -6.1981,-2.3609 -12.5034,-4.9344 -18.1172,-6.8847 -5.2237,-1.8149 -9.6386,-3.0805 -13.2051,-3.2383 z m -32.375,20.8652 a 272.53467,271.28503 0 0 0 6.8516,44.4434 4.9133858,4.9133858 0 0 1 1.9121,-1.8672 c 34.6882,-13.228 74.0227,-19.3268 110.7617,-8.6113 a 4.9133858,4.9133858 0 0 1 0.209,0.0664 c 9.2125,3.1388 27.724,-1.2351 37.084,-8.8399 4.321,-3.5107 5.7995,-6.7939 3.293,-10.5429 -31.5074,9.4504 -68.3476,13.331 -98.9063,-4.2071 -17.7289,1.6978 -49.3703,4.8438 -61.2051,-10.4414 z m 286.8594,8.0996 c -0.6219,0.0518 -1.5171,0.251 -2.2969,0.3867 -19.0027,26.1425 -21.7885,63.916 -1.5332,89.7872 a 4.9133858,4.9133858 0 0 1 0.4395,0.6679 c 8.2605,15.0697 18.7515,29.5581 26.3379,45.6817 12.4969,-18.0201 13.677,-45.0697 -5.5254,-54.1504 a 4.9133858,4.9133858 0 0 1 -2.5977,-5.8809 c 4.8005,-15.6704 3.2192,-34.7251 -14.0019,-34.3437 a 4.9133858,4.9133858 0 0 1 -4.6328,-2.9922 c -3.6085,-8.5059 2.2082,-20.9752 5.1406,-29.9121 1.4534,-4.4295 2.043,-7.6364 1.7363,-8.959 0,0 -0.084,-0.5332 -3.0664,-0.2852 z m -35.5215,0.0235 c -23.439,-0.508 -46.9239,12.4523 -53.6425,35.5293 a 4.9133858,4.9133858 0 0 1 -0.2383,0.6484 c -1.0368,2.2962 -2.0909,4.669 -3.1543,7.0312 21.3184,-10.1869 38.1483,-27.7744 57.0351,-43.2089 z m 98.2188,21.1816 c -2.2442,-0.1119 -3.5753,1.0939 -4.1309,4.1816 15.6873,12.7076 37.438,26.9807 50.9551,35.5782 23.6595,-20.3785 52.7105,-14.3634 75.2813,1.8125 11.8643,4.7424 42.9056,-4.6369 53.9589,5.2148 a 272.53467,271.28503 0 0 0 9.711,-31.0195 c -1.5504,-0.0903 -3.1478,-0.2271 -4.9414,-0.5801 a 4.9133858,4.9133858 0 0 1 -2.6836,-1.5117 c -21.3747,-23.4773 -38.6915,7.817 -66.6895,3.7168 a 4.9133858,4.9133858 0 0 1 -1.1054,-0.2969 c -22.0863,-8.8027 -45.0229,-3.9662 -65.1641,4.4981 a 4.9133858,4.9133858 0 0 1 -3.2109,0.207 c -8.7538,-2.4147 -21.6054,-12.4945 -32.3692,-18.0762 -4.2097,-2.183 -7.3671,-3.6127 -9.6113,-3.7246 z m -37.6524,3.1152 c 0,0 -0.4636,0.3794 -1.0839,1.502 15.4718,10.5134 25.4078,25.3243 17.3222,45.0195 9.8677,23.4221 30.5218,43.2601 48.4864,62.6133 17.2497,-25.3508 -1.386,-65.4008 -29.2051,-75.127 a 4.9133858,4.9133858 0 0 1 -0.4375,-0.1777 c -11.7821,-5.4382 -27.1898,-32.2542 -35.0821,-33.8301 z m -138.957,9.0528 c -8.1374,6.4704 -19.4479,14.8175 -28.3594,13.2851 -16.5277,5.2092 -35.3999,-1.6327 -47.6738,-0.5742 -6.8486,0.5906 -12.0441,3.4282 -14.168,16.0371 a 4.9133858,4.9133858 0 0 1 -0.5449,1.5586 c -3.1279,5.6648 -6.3756,10.7031 -8.0527,15.8242 34.2499,-17.0476 76.61,-15.2493 98.7988,-46.1308 z m 70.6367,0.3691 c -0.5273,0.1956 -2.3494,0.9795 -6.1797,5.0625 a 4.9133858,4.9133858 0 0 1 -1.4043,1.043 c -25.9256,12.8331 -17.7848,44.8044 -31.6308,69.1933 -0.018,4.5788 3.9195,8.3759 8.7969,10.2207 29.108,-4.0521 49.065,-41.1857 31.914,-66.3144 a 4.9133858,4.9133858 0 0 1 -0.832,-3.2402 c 0.482,-5.008 0.5969,-9.8023 0.053,-13.2735 -0.2003,-1.2778 -0.4528,-2.0962 -0.7168,-2.6914 z m -184.7734,12.3262 c -6.3781,-0.466 -14.3654,3.4768 -23.1875,6.1621 -9.2473,2.8147 -19.52,3.7307 -26.6152,-6.0215 a 272.53467,271.28503 0 0 0 258.9433,197.6387 c -24.4971,-19.9086 -5.2828,-57.1505 -2.7988,-78.5899 a 4.9133858,4.9133858 0 0 1 0.1777,-0.8535 c 8.9035,-29.5113 -47.5519,-42.0843 -43.9726,-8.7051 13.3668,22.2969 30.3098,62.4708 -0.9688,81.3106 a 4.9133858,4.9133858 0 0 1 -6.1992,-0.9375 c -6.5917,-7.3824 -3.411,-24.1037 -2.7441,-35.0625 0.2295,-3.7719 0.2197,-6.2707 -0.2344,-8.1113 -0.2379,0.1278 -1.5564,1.016 -2.6738,1.707 0.4352,10.6422 -8.0679,21.7464 -15.5547,26.9492 -12.2092,8.4845 -22.4586,1.9573 -15.4043,-18.6719 a 4.9133858,4.9133858 0 0 1 0.3398,-0.7714 c 12.0381,-21.9737 30.0617,-51.7662 14.5899,-70.9903 -6.5723,21.5863 -9.3252,52.1525 -23.4512,74.1621 a 4.9133858,4.9133858 0 0 1 -5.4453,2.0801 c -25.0788,-6.9446 -3.3355,-50.9401 3.7383,-68.6172 -2.1428,-5.8904 -1.9412,-11.7247 -0.3438,-17.289 3.991,-13.9026 16.2488,-27.147 20.2324,-37.627 2.0395,-5.3653 1.7217,-9.4416 -3.6523,-13.3477 -22.6052,-0.2669 -14.7609,25.3056 -23.8809,49.0137 -2.0603,5.3559 -5.2276,10.2811 -10.1562,13.9531 -10.0287,28.3268 -49.2697,67.0948 -70.877,26.9688 a 4.9133858,4.9133858 0 0 1 -0.2265,-0.4844 c -5.7184,-14.1042 5.5903,-30.6595 12.6972,-43.7207 6.6645,-12.248 9.4079,-19.052 0.4297,-22.5762 -5.3808,0.8714 -12.9592,10.0047 -20.6875,18.461 -8.4559,9.2525 -20.6702,18.8492 -27.8223,2.8262 a 4.9133858,4.9133858 0 0 1 -0.4042,-1.5254 c -2.5828,-26.5022 22.4593,-49.355 16.1523,-67.3301 z m 371.5742,25.4551 c -3.7566,0.197 -7.1323,1.1245 -9.3086,2.3964 -1.1509,0.6728 -1.4629,1.0157 -1.4629,1.0157 0,0 1.3213,2.2946 8.1328,5.207 a 4.9133858,4.9133858 0 0 1 2.2579,1.9512 c 14.3785,23.4795 42.4276,22.3808 63.6757,37.9433 a 4.9133858,4.9133858 0 0 1 1.4434,1.6719 c 0.5403,1.0236 0.9273,1.9799 1.3848,2.9668 a 272.53467,271.28503 0 0 0 23.2773,-41.1055 c -23.8483,13.6619 -56.3205,1.6305 -77.2559,-9.3945 a 4.9133858,4.9133858 0 0 1 -0.3691,-0.2168 c -2.0538,-1.3217 -4.7306,-2.1038 -7.9219,-2.375 -1.3064,-0.111 -2.6013,-0.1262 -3.8535,-0.0605 z m -287.748,6.9394 c -6.7099,-0.2482 -20.4517,26.4652 -26.7207,35.9375 -4.0826,12.3569 -15.846,32.0938 -11.3438,39.1348 19.9196,-19.3429 34.6757,-46.353 39.7149,-73.209 -0.9001,-1.3131 -1.6504,-1.8633 -1.6504,-1.8633 z m 264.3457,19.8242 c -2.7813,19.2498 25.5074,32.8474 39.6738,50.9473 7.6431,3.5585 11.7803,11.3051 12.9941,18.6094 a 272.53467,271.28503 0 0 0 24.7149,-27.0196 c -10.0771,-3.5375 -25.1314,-13.2009 -30.6406,-14.7011 -21.264,-2.2319 -34.508,-25.9583 -46.7422,-27.836 z m -142.8125,9.5547 c -0.017,0.0634 -0.033,0.1135 -0.049,0.1875 -0.2318,1.0496 -0.2456,2.956 0.07,5.5977 21.9903,25.7272 35.6585,61.5978 14.0468,92.5976 -0.7662,4.7485 -0.5595,9.5203 0.6719,13.9082 17.1093,-29.3911 20.1632,-69.554 -3.0684,-95.4726 a 4.9133858,4.9133858 0 0 1 -1.2265,-2.7539 c -0.735,-6.8449 -7.5309,-13.4405 -10.4453,-14.0645 z m 78.1621,25.1602 c 0.3362,0.8892 0.452,1.4345 0.9179,2.5215 a 4.9133858,4.9133858 0 0 1 0.1973,0.5468 c 7.9428,26.9507 7.1567,54.6878 19.4746,78.459 a 4.9133858,4.9133858 0 0 1 0.1524,4.1973 c -2.7219,6.341 -6.187,11.0477 -10.6504,12.1094 -15.0129,3.571 -22.1167,-35.2317 -25.3614,-44.0918 a 4.9133858,4.9133858 0 0 1 -0.1562,-0.5098 c -2.093,-8.4563 -1.8049,-22.0695 -3.3184,-28.1504 -1.2145,1.248 -2.707,3.0489 -4.7636,6.127 -10.5725,19.4835 -1.1185,61.0473 -23.6641,78.1562 a 272.53467,271.28503 0 0 0 91.6914,-24.1523 4.9133858,4.9133858 0 0 1 -1.2441,-0.8575 c -11.6418,-15.1704 -6.3187,-38.0306 -9.1895,-52.8476 -1.7087,-8.8188 -5.7813,-15.2183 -20.1172,-16.957 a 4.9133858,4.9133858 0 0 1 -3.707,-2.4961 c -2.0209,-3.6486 -6.1595,-8.4011 -10.2617,-12.0547 z m 62.6582,9.3554 c -0.5159,-0.0795 -0.8047,-0.0174 -0.9238,0.0372 -0.401,0.1836 -1.8723,1.5608 -2.6836,7.1211 -0.8362,14.5219 7.0701,45.8892 -1.1875,61.4472 a 272.53467,271.28503 0 0 0 42.582,-28.039 c -2.1499,-1.6009 -4.3485,-3.6942 -6.541,-6.7032 a 4.9133858,4.9133858 0 0 1 -0.209,-0.3105 c -4.79,-7.7506 -19.0648,-27.8696 -28.752,-32.7363 -1.0264,-0.5157 -1.7693,-0.7369 -2.2851,-0.8165 z" />
    <circle
       id="path12949"
       style="fill:#b8d5c7;stroke:#063738;stroke-width:0.999999"
       cx="754.12921"
       cy="1110.5164"
       r="4.5643454" />
    <text
       xml:space="preserve"
       style="font-style:normal;font-variant:normal;font-weight:normal;font-stretch:normal;font-size:551.943px;font-family:Meera;-inkscape-font-specification:Meera;fill:#50c085;fill-opacity:1;stroke:none;stroke-width:4.037;stroke-dasharray:none;stroke-dashoffset:0;stroke-opacity:1"
       x="539.92462"
       y="768.04749"
       id="text12953"
       transform="scale(0.9966282,1.0033832)"><tspan
         sodipodi:role="line"
         id="tspan12951"
         style="font-style:normal;font-variant:normal;font-weight:normal;font-stretch:normal;font-family:Ubuntu;-inkscape-font-specification:Ubuntu;fill:#50c085;fill-opacity:1;stroke:none;stroke-width:4.037;stroke-dasharray:none;stroke-opacity:1"
         x="539.92462"
         y="768.04749">micr     base</tspan></text>
  </g>
</svg>
